<mxfile host="app.diagrams.net" agent="Mozilla/5.0 (Macintosh; Intel Mac OS X 10_15_7) AppleWebKit/537.36 (KHTML, like Gecko) Chrome/131.0.0.0 Safari/537.36" version="26.0.13">
  <diagram name="Page-1" id="b5b7bab2-c9e2-2cf4-8b2a-24fd1a2a6d21">
    <mxGraphModel dx="1749" dy="1106" grid="1" gridSize="10" guides="1" tooltips="1" connect="1" arrows="1" fold="1" page="1" pageScale="1" pageWidth="827" pageHeight="1169" background="light-dark(#e29dc2, #dadaff)" math="0" shadow="0">
      <root>
        <mxCell id="0" />
        <mxCell id="1" parent="0" />
        <mxCell id="6e0c8c40b5770093-72" value="" style="shape=folder;fontStyle=1;spacingTop=10;tabWidth=190;tabHeight=50;tabPosition=left;html=1;rounded=0;shadow=0;comic=0;labelBackgroundColor=none;strokeWidth=1;fillColor=#dae8fc;fontFamily=Verdana;fontSize=10;align=center;strokeColor=#6c8ebf;" parent="1" vertex="1">
          <mxGeometry x="340" y="110" width="1430" height="850" as="geometry" />
        </mxCell>
        <mxCell id="6e0c8c40b5770093-43" value="&lt;font style=&quot;font-size: 36px;&quot;&gt;ServiceAPI&lt;/font&gt;" style="shape=folder;fontStyle=1;spacingTop=10;tabWidth=270;tabHeight=40;tabPosition=left;html=1;rounded=0;shadow=0;comic=0;labelBackgroundColor=none;strokeColor=#b85450;strokeWidth=1;fillColor=#f8cecc;fontFamily=Verdana;fontSize=10;align=center;" parent="1" vertex="1">
          <mxGeometry x="390" y="230" width="440" height="290" as="geometry" />
        </mxCell>
        <mxCell id="6e0c8c40b5770093-73" value="&lt;font style=&quot;font-size: 36px;&quot;&gt;HBnB&lt;/font&gt;" style="text;html=1;align=left;verticalAlign=top;spacingTop=-4;fontSize=10;fontFamily=Verdana" parent="1" vertex="1">
          <mxGeometry x="390" y="110" width="80" height="30" as="geometry" />
        </mxCell>
        <mxCell id="5PN8fogwr8fM1ETWKpJ--3" value="&lt;font style=&quot;font-size: 36px;&quot;&gt;User&lt;/font&gt;&lt;div&gt;&lt;font style=&quot;font-size: 36px;&quot;&gt;Place&lt;/font&gt;&lt;/div&gt;&lt;div&gt;&lt;font style=&quot;font-size: 36px;&quot;&gt;Review&lt;/font&gt;&lt;/div&gt;&lt;div&gt;&lt;font style=&quot;font-size: 36px;&quot;&gt;Amenity&lt;/font&gt;&lt;/div&gt;" style="shape=folder;fontStyle=1;spacingTop=10;tabWidth=280;tabHeight=40;tabPosition=left;html=1;rounded=0;shadow=0;comic=0;labelBackgroundColor=none;strokeColor=#b85450;strokeWidth=1;fillColor=#f8cecc;fontFamily=Verdana;fontSize=10;align=center;" vertex="1" parent="1">
          <mxGeometry x="840" y="600" width="440" height="290" as="geometry" />
        </mxCell>
        <mxCell id="5PN8fogwr8fM1ETWKpJ--4" value="&lt;font style=&quot;font-size: 36px;&quot;&gt;DatabaseAccess&lt;/font&gt;" style="shape=folder;fontStyle=1;spacingTop=10;tabWidth=280;tabHeight=40;tabPosition=left;html=1;rounded=0;shadow=0;comic=0;labelBackgroundColor=none;strokeWidth=1;fontFamily=Verdana;fontSize=10;align=center;fillColor=#f8cecc;strokeColor=#b85450;" vertex="1" parent="1">
          <mxGeometry x="1300" y="230" width="440" height="290" as="geometry" />
        </mxCell>
        <mxCell id="5PN8fogwr8fM1ETWKpJ--6" value="&lt;span style=&quot;font-weight: 700; text-align: center;&quot;&gt;&lt;font style=&quot;font-size: 24px;&quot;&gt;PresentationLayer&lt;/font&gt;&lt;/span&gt;" style="text;html=1;align=left;verticalAlign=top;spacingTop=-4;fontSize=10;fontFamily=Verdana" vertex="1" parent="1">
          <mxGeometry x="400" y="230" width="250" height="30" as="geometry" />
        </mxCell>
        <mxCell id="5PN8fogwr8fM1ETWKpJ--7" value="&lt;span style=&quot;font-weight: 700; text-align: center;&quot;&gt;&lt;font style=&quot;font-size: 24px;&quot;&gt;BusinessLogicLayer&lt;/font&gt;&lt;/span&gt;" style="text;html=1;align=left;verticalAlign=top;spacingTop=-4;fontSize=10;fontFamily=Verdana" vertex="1" parent="1">
          <mxGeometry x="840" y="600" width="250" height="30" as="geometry" />
        </mxCell>
        <mxCell id="5PN8fogwr8fM1ETWKpJ--8" value="&lt;span style=&quot;font-weight: 700; text-align: center;&quot;&gt;&lt;font style=&quot;font-size: 24px;&quot;&gt;PersistenceLayer&lt;/font&gt;&lt;/span&gt;" style="text;html=1;align=left;verticalAlign=top;spacingTop=-4;fontSize=10;fontFamily=Verdana;" vertex="1" parent="1">
          <mxGeometry x="1310" y="230" width="250" height="30" as="geometry" />
        </mxCell>
      </root>
    </mxGraphModel>
  </diagram>
</mxfile>
